<?xml version="1.0" encoding="utf-8"?>
<!-- Uploaded to: SVG Repo, www.svgrepo.com, Generator: SVG Repo Mixer Tools -->
<svg width="800px" height="800px" viewBox="0 0 1024 1024" class="icon"  version="1.1" xmlns="http://www.w3.org/2000/svg">
<path d="M 705.21 899.997 h -37.1371 V 278.74 c 0 -72.0896 -49.7588 -133.014 -116.509 -150.369 V 47.18 c 0 -21.3599 -17.4763 -38.8362 -38.8362 -38.8362 s -38.8362 17.4763 -38.8362 38.8362 v 81.0704 c -66.8709 17.3549 -116.509 78.4005 -116.509 150.369 v 621.258 H 320.246 c -21.3599 0 -38.8362 17.4763 -38.8362 38.8362 s 17.4763 38.8362 38.8362 38.8362 h 384.963 c 21.3599 0 38.8362 -17.4763 38.8362 -38.8362 c -0.121363 -21.2385 -17.5977 -38.7148 -38.8362 -38.7148 Z" fill="#9fc8fe" /><path d="M 408.842 577.536 c -5.33997 0 -9.70903 -4.36907 -9.70903 -9.70903 V 294.397 c 0 -5.33997 4.36907 -9.70903 9.70903 -9.70903 s 9.70903 4.36907 9.70903 9.70903 V 567.827 c 0 5.33997 -4.36907 9.70903 -9.70903 9.70903 Z M 430.08 218.909 c -1.21363 0 -2.54862 -0.242725 -3.76225 -0.728178 c -4.97588 -2.06317 -7.28178 -7.76723 -5.21861 -12.7431 c 9.95177 -24.0299 42.7198 -33.7389 44.1761 -34.1029 c 5.09725 -1.45635 10.5586 1.45635 12.0149 6.67497 c 1.45635 5.09725 -1.45635 10.5586 -6.67497 12.0149 c -7.03905 2.06317 -26.3358 10.1945 -31.5543 22.9376 c -1.57772 3.64089 -5.21861 5.94678 -8.98085 5.94678 Z" fill="#ffffff" /><path d="M 498.893 39.291 m -8.73813 0 a 8.73813 8.73813 0 1 0 17.4763 0 a 8.73813 8.73813 0 1 0 -17.4763 0 Z" fill="#ffffff" />
</svg>